<?xml version="1.0" encoding="UTF-8"?> <svg xmlns="http://www.w3.org/2000/svg" width="171" height="87" viewBox="0 0 171 87" fill="none"> <path fill-rule="evenodd" clip-rule="evenodd" d="M113.097 81.7257C111.201 83.6214 108.718 85.0097 105.728 85.8374C103.833 86.3714 96.4369 86.6384 94.7816 86.2112C86.4515 84.1821 82.0995 79.5631 82.0995 72.7282C82.0995 67.068 85.9709 62.2088 91.9782 60.3131L93.4466 59.8592V54.9466L91.6311 54.466C87.4927 53.3714 83.0607 50.5947 80.8714 47.7112C78.3617 44.3738 77.3471 41.6238 77.1068 37.4854C76.4126 25.7913 86.6384 17.301 100.655 17.9951C104.714 18.182 107.063 18.6359 109.973 19.784L112.109 20.6384L113.311 20.1578C116.194 19.0631 118.09 18.6626 121.294 18.5024L124.551 18.3422V0H138.168V64.0777H124.551V29.2888L122.629 29.4757C121.587 29.5558 120.68 29.6893 120.6 29.7427C120.546 29.7961 120.786 30.7306 121.107 31.7986C121.961 34.5752 121.961 38.8471 121.107 41.6505C119.318 47.5243 114.592 52.1165 108.238 54.1189L105.862 54.8665V60.0194L106.583 60.2063C108.425 60.6602 111.335 62.3689 112.91 63.9175C114.806 65.8131 115.847 67.602 116.408 69.9782C117.449 74.4636 116.328 78.4685 113.097 81.7257ZM94.8955 70.8057C93.6406 73.2353 94.7887 76.1455 97.2984 76.8931C99.6212 77.614 102.665 76.813 103.84 75.2378C104.561 74.2232 104.561 71.5533 103.84 70.5654C102.692 69.0436 101.997 68.7499 99.5144 68.7499C96.7911 68.7499 95.6965 69.2305 94.8955 70.8057ZM96.5285 42.4759C92.7639 41.7817 90.8416 39.8327 90.8149 36.7089C90.7882 32.5439 94.0722 30.4881 100.293 30.755C102.776 30.8618 103.337 30.9686 104.698 31.6628C105.553 32.09 106.621 32.891 107.048 33.4516C107.742 34.306 107.876 34.7599 107.956 36.2817C108.143 39.2453 106.861 41.0342 103.871 42.0487C102.349 42.556 98.2906 42.7963 96.5285 42.4759Z" fill="white"></path> <path d="M28.9685 64.051L27.9806 64.318C27.0194 64.585 22.5874 64.6651 20.8252 64.4248C13.8835 63.5437 7.44903 59.8058 3.84466 54.5728C2.58981 52.7573 1.25485 49.7403 0.614078 47.2573C0 45.0146 0 44.8544 0 26.1651V7.34224L6.75486 7.26214L13.483 7.20874V19.7573H26.2986V32.5728L19.9709 32.6262L13.6165 32.7063V38.0461C13.6432 42.2646 13.7233 43.7063 14.0971 44.8811C14.9515 47.7646 16.9539 49.8738 19.8374 51.0486C21.1723 51.5825 21.8131 51.6626 25.1772 51.6626L28.9685 51.6359V64.051Z" fill="white"></path> <path fill-rule="evenodd" clip-rule="evenodd" d="M62.3689 58.6845C60.0728 61.568 57.0558 63.4903 53.6117 64.2112C47.6845 65.466 40.4757 63.5704 35.5631 59.4854C32.3058 56.7354 29.0753 51.449 27.9806 46.9903C27.233 43.8932 27.2864 37.1651 28.1141 34.335C30.4903 26.0583 37.1651 20.1578 46.0558 18.3956C47.017 18.2087 49.6068 18.0485 51.9296 18.0485C56.9223 18.0485 59.5922 18.6092 63.3301 20.4248C67.8956 22.6408 70.8325 25.551 73.0219 30.0364C74.9175 33.9078 75.3981 36.1238 75.6918 42.9854C76.1723 53.1845 76.8131 57.483 78.602 62.0753L79.3762 64.0777H65.5995L64.7986 61.8884C64.3714 60.6602 63.9175 59.2452 63.8107 58.7379C63.517 57.2961 63.4369 57.2961 62.3689 58.6845ZM44.967 50.089C45.5544 50.4628 46.7291 50.9967 47.5835 51.2637C49.4791 51.8778 53.3238 51.9579 55.3529 51.4239C59.7048 50.2492 61.8675 47.072 61.9209 41.7856C61.9476 36.7929 60.3189 33.5356 56.9548 31.8001C55.3529 30.9992 54.8723 30.8657 52.5228 30.7589C48.4379 30.572 45.9548 31.3463 43.7922 33.5356C39.6272 37.6739 40.2946 46.9919 44.967 50.089Z" fill="white"></path> <path d="M156.056 37.5922C155.549 39.1942 155.522 40.0753 155.522 51.6893V64.0777H141.612L141.718 50.6748C141.799 39.1675 141.879 37.0049 142.279 35.5097C144.789 25.8447 151.49 19.9976 162.09 18.2621C164.706 17.835 169.726 17.835 170.42 18.2621C170.66 18.3956 170.74 20.2379 170.74 24.9636V31.4782L168.124 31.318C161.716 30.9442 157.418 33.1602 156.056 37.5922Z" fill="white"></path> </svg> 