<?xml version="1.0" encoding="UTF-8"?> <svg xmlns="http://www.w3.org/2000/svg" width="725" height="389" viewBox="0 0 725 389" fill="none"> <path d="M12 197.5V29H362.5H713V197.5V366H362.5H12V197.5Z" fill="#FFC400"></path> <path d="M0 194.5V0H362.5H725V194.5V389H362.5H0V194.5ZM433.5 358.5C444.7 355.4 454 350.2 461.1 343.1C473.2 330.9 477.4 315.9 473.5 299.1C471.4 290.2 467.5 283.5 460.4 276.4C454.5 270.6 443.6 264.2 436.7 262.5L434 261.8V252.1V242.5L442.9 239.7C466.7 232.2 484.4 215 491.1 193C494.3 182.5 494.3 166.5 491.1 156.1C489.9 152.1 489 148.6 489.2 148.4C489.5 148.2 492.9 147.7 496.8 147.4L504 146.7V211.9V277H529.5H555V157V37H529.5H504V71.4V105.7L491.8 106.3C479.8 106.9 472.7 108.4 461.9 112.5L457.4 114.3L449.4 111.1C438.5 106.8 429.7 105.1 414.5 104.4C362 101.8 323.7 133.6 326.3 177.4C327.2 192.9 331 203.2 340.4 215.7C348.6 226.5 365.2 236.9 380.7 241L387.5 242.8V252V261.2L382 262.9C359.5 270 345 288.2 345 309.4C345 335 361.3 352.3 392.5 359.9C398.7 361.5 426.4 360.5 433.5 358.5ZM142.3 277.9L146 276.9V253.7V230.4L131.8 230.5C119.2 230.5 116.8 230.2 111.8 228.2C101 223.8 93.5 215.9 90.3 205.1C88.9 200.7 88.6 195.3 88.5 179.5V159.5L112.3 159.2L136 159V135V111H112H88V87.5V64L62.8 64.2L37.5 64.5V135C37.5 205 37.5 205.6 39.8 214C42.2 223.3 47.2 234.6 51.9 241.4C65.4 261 89.5 275 115.5 278.3C122.1 279.2 138.7 278.9 142.3 277.9ZM238.3 277.5C251.2 274.8 262.5 267.6 271.1 256.8C275.1 251.6 275.4 251.6 276.5 257C276.9 258.9 278.6 264.2 280.2 268.8L283.2 277H309H334.8L331.9 269.5C325.2 252.3 322.8 236.2 321 198C319.9 172.3 318.1 164 311 149.5C302.8 132.7 291.8 121.8 274.7 113.5C260.7 106.7 250.7 104.6 232 104.6C223.3 104.6 213.6 105.2 210 105.9C176.7 112.5 151.7 134.6 142.8 165.6C139.7 176.2 139.5 201.4 142.3 213C146.4 229.7 158.5 249.5 170.7 259.8C189.1 275.1 216.1 282.2 238.3 277.5ZM620 230.6C620 187.1 620.1 183.8 622 177.8C627.1 161.2 643.2 152.9 667.2 154.3L677 154.9V130.5C677 112.8 676.7 105.9 675.8 105.4C673.2 103.8 654.4 103.8 644.6 105.4C604.9 111.9 579.8 133.8 570.4 170C568.9 175.6 568.6 183.7 568.3 226.8L567.9 277H593.9H620V230.6Z" fill="white"></path> <path d="M401.9 325C392.5 322.2 388.2 311.3 392.9 302.2C395.9 296.3 400 294.5 410.2 294.5C419.5 294.5 422.1 295.6 426.4 301.3C429.1 305 429.1 315 426.4 318.8C422 324.7 410.6 327.7 401.9 325Z" fill="white"></path> <path d="M399 196.1C384.9 193.5 377.7 186.2 377.6 174.5C377.5 158.9 389.8 151.2 413.1 152.2C422.4 152.6 424.5 153 429.6 155.6C432.8 157.2 436.8 160.2 438.4 162.3C441 165.5 441.5 167.2 441.8 172.9C442.5 184 437.7 190.7 426.5 194.5C420.8 196.4 405.6 197.3 399 196.1Z" fill="white"></path> <path d="M215.7 229C212.5 228 208.1 226 205.9 224.6C188.4 213 185.9 178.1 201.5 162.6C209.6 154.4 218.9 151.5 234.2 152.2C243 152.6 244.8 153.1 250.8 156.1C263.4 162.6 269.5 174.8 269.4 193.5C269.2 213.3 261.1 225.2 244.8 229.6C237.2 231.6 222.8 231.3 215.7 229Z" fill="white"></path> </svg> 